# xmcd
#
# Track frame offsets: 
#        150
#        12482
#        21817
#        44872
#        64610
#        85050
#        103300
#        136000
#        152972
#        169032
#        182717
#        195132
#        207922
#        218432
#        233680
#        251275
#        269912
#        288492
#        315177
#        328207
#
# Disc length: 4510 seconds
#
# Revision: 3
# Processed by: cddbd v1.5.2PL0 Copyright (c) Steve Scherf et al.
# Submitted via: ExactAudioCopy v0.99pb5
#
DISCID=19119c14
DTITLE=Various Artist - Second That Emotion
DYEAR=2001
DGENRE=Soul
TTITLE0=Aaron Neville - Tell It Like It Is
TTITLE1=Gladys Knight And The Oips - Every Beat Of My Heart
TTITLE2=Heatwave - Always And Forever
TTITLE3=Al Jarreau - Lean On Me
TTITLE4=Sister Sledge - Thinking Of You
TTITLE5=Tavares - Never Had A Love Like This Before
TTITLE6=Rose Royce - Love Don't Live Here Anymore
TTITLE7=Ike And Tina Turner - I've Been Loving You Too Long
TTITLE8=Three Degrees - I'll Be Around
TTITLE9=Patti Labelle and The Bluebells - Have I Sinned
TTITLE10=Percy Sledge - My Adorable One
TTITLE11=Ben E King - Don't Play That Song
TTITLE12=George Benson - Love For Sale
TTITLE13=Barry White - Your Heart And Soul
TTITLE14=Johnny Bristol - Hang On In There Baby
TTITLE15=Chi-Lites - Have You Seen Her
TTITLE16=Marvin Gaye - Sexual Healing
TTITLE17=James Brown - Georgia On My Mind
TTITLE18=Commodores - Baby This Is Forever
TTITLE19=Sly And The Family Stone - Ain't That Loving You Baby
EXTD=
EXTT0=
EXTT1=
EXTT2=
EXTT3=
EXTT4=
EXTT5=
EXTT6=
EXTT7=
EXTT8=
EXTT9=
EXTT10=
EXTT11=
EXTT12=
EXTT13=
EXTT14=
EXTT15=
EXTT16=
EXTT17=
EXTT18=
EXTT19=
PLAYORDER=
